<svg width="160" height="84" viewBox="0 0 160 84" fill="none" xmlns="http://www.w3.org/2000/svg">
<path d="M128.711 80.2635C130.231 80.2635 132.614 79.5199 135.86 78.0328C136.516 78.9534 136.861 79.7678 136.896 80.4759C135.135 81.5382 133.408 82.3702 131.716 82.9722C130.023 83.5741 128.815 83.8751 128.089 83.8751C124.083 83.8751 121.027 82.6535 118.92 80.2104C116.813 77.7318 115.76 74.2796 115.76 69.8536C115.76 65.4276 116.779 61.9576 118.816 59.4437C120.888 56.8943 123.979 55.6196 128.089 55.6196C131.267 55.6196 133.684 56.7881 135.342 59.125C137.034 61.4619 137.88 64.5955 137.88 68.5258C137.604 69.0215 137.38 69.3579 137.207 69.5349L120.526 69.2693C120.56 72.8455 121.165 75.5719 122.339 77.4485C123.548 79.3252 125.672 80.2635 128.711 80.2635ZM133.166 66.242C133.166 63.9051 132.752 62.0993 131.923 60.8246C131.094 59.5145 129.712 58.8594 127.778 58.8594C125.844 58.8594 124.118 59.2312 122.598 59.9748C121.562 62.0993 120.906 64.2768 120.629 66.5075C123.358 66.4721 127.537 66.3836 133.166 66.242Z" fill="url(#paint0_linear_111_179)"/>
<path d="M110.894 43.7757C111.965 43.7757 112.725 43.8111 113.174 43.8819C113.174 45.1212 112.949 46.5375 112.5 48.1309C112.189 69.0215 112.034 79.5199 112.034 79.6261L116.386 80.051C116.386 81.0425 116.092 82.1047 115.505 83.2377H103.59L103.434 81.3788C105.023 80.8123 106.577 80.3874 108.097 80.1041L107.579 47.9716C105.679 47.8653 104.16 47.6529 103.02 47.3342L103.227 44.5724C104.989 44.0413 107.544 43.7757 110.894 43.7757Z" fill="url(#paint1_linear_111_179)"/>
<path d="M93.3503 79.9448L92.9359 59.9217H88.9469L88.7915 58.0628C89.1369 57.8149 90.1384 57.3546 91.7962 56.6818L96.0441 49.8835C96.7349 49.9544 97.2702 50.1314 97.6501 50.4147L97.5983 56.257C100.189 56.257 102.312 56.434 103.97 56.7881C103.97 57.7441 103.677 58.7886 103.09 59.9217H97.4947C97.4256 64.1706 97.3565 70.6148 97.2875 79.2543C99.2215 79.3606 101.156 79.7146 103.09 80.3166L103.038 82.1755C102.554 82.4941 101.311 82.8659 99.3078 83.2908C97.3393 83.7157 95.716 83.9282 94.4382 83.9282C94.2655 83.6449 94.041 83.043 93.7647 82.1224C93.4884 81.1664 93.3503 80.4405 93.3503 79.9448Z" fill="url(#paint2_linear_111_179)"/>
<path d="M74.0194 79.8386C75.2282 80.3697 76.696 80.6353 78.4228 80.6353C80.1841 80.6353 81.5656 80.2989 82.5672 79.6261C83.5687 78.9534 84.0695 78.0328 84.0695 76.8643C84.0695 75.6959 83.6032 74.7221 82.6708 73.9432C81.7383 73.1642 80.5986 72.4738 79.2517 71.8718C77.9047 71.2699 76.5578 70.6325 75.2109 69.9598C73.864 69.287 72.7243 68.4019 71.7918 67.3042C70.8593 66.2066 70.3931 64.9319 70.3931 63.4802C70.3931 61.037 71.1874 59.125 72.7761 57.7441C74.3648 56.3278 76.5578 55.6196 79.3553 55.6196C82.1873 55.6196 84.8466 56.2747 87.3332 57.5848C87.3677 57.9388 87.385 58.8949 87.385 60.4528C87.385 61.9753 87.2296 63.2854 86.9187 64.3831C86.0899 64.6663 85.1056 64.808 83.9659 64.808L82.2563 59.3906C81.4965 59.0011 80.4604 58.8063 79.1481 58.8063C77.8702 58.8063 76.8514 59.1604 76.0916 59.8686C75.3318 60.5413 74.9519 61.4088 74.9519 62.471C74.9519 63.4979 75.4181 64.4008 76.3506 65.1797C77.3176 65.9587 78.4746 66.6669 79.8215 67.3042C81.1684 67.9061 82.5154 68.5612 83.8623 69.2693C85.2092 69.9421 86.3489 70.845 87.2814 71.978C88.2484 73.0757 88.7319 74.3504 88.7319 75.8021C88.7319 78.3514 87.7649 80.352 85.8308 81.8037C83.9313 83.22 81.5829 83.9282 78.7854 83.9282C77.2658 83.9282 75.6426 83.6803 73.9158 83.1846C72.189 82.6535 70.7384 81.9808 69.5642 81.1664C69.5642 78.7941 69.7714 76.6873 70.1859 74.8461C70.9802 74.7044 72.0508 74.6336 73.3977 74.6336L74.0194 79.8386Z" fill="url(#paint3_linear_111_179)"/>
<path d="M55.902 79.7323C56.9035 79.7323 58.0259 79.5199 59.2693 79.095C60.5126 78.6347 61.5314 78.0859 62.3257 77.4485C62.1876 69.9067 62.0667 64.1883 61.9631 60.2935C59.8218 60.2935 58.2332 60.081 57.1971 59.6561L57.4043 56.8943C60.3399 56.3632 62.6365 56.0976 64.2943 56.0976C65.9866 56.0976 67.0572 56.133 67.5062 56.2039C67.5062 56.8412 67.4026 57.691 67.1953 58.7532C67.0227 59.8154 66.9018 60.3997 66.8327 60.5059L66.2111 79.4668C68.0415 79.573 69.5266 79.7855 70.6663 80.1041L70.5626 82.8128C69.043 83.3085 67.5753 83.5564 66.1593 83.5564C64.7433 83.5564 63.8799 83.5387 63.569 83.5033C62.9128 82.1578 62.5329 80.9185 62.4293 79.7855C60.737 81.0956 59.1656 82.1047 57.7151 82.8128C56.2991 83.521 55.3666 83.8751 54.9177 83.8751C51.8785 83.8751 49.6681 83.043 48.2867 81.3788C46.9398 79.6792 46.2663 77.2007 46.2663 73.9432C46.2663 73.9078 46.4217 69.3756 46.7325 60.3466C44.7294 60.3466 42.8817 60.1164 41.1895 59.6561L41.3967 56.8943C44.3323 56.3632 46.6117 56.0976 48.2349 56.0976C49.8581 56.0976 50.8942 56.133 51.3432 56.2039C51.3432 57.0536 51.2395 57.9919 51.0323 59.0188C50.8251 60.0456 50.7042 60.5413 50.6697 60.5059L50.7215 71.978C50.7215 74.669 51.0496 76.6342 51.7058 77.8734C52.362 79.1127 53.7607 79.7323 55.902 79.7323Z" fill="url(#paint4_linear_111_179)"/>
<path d="M11.3961 56.3936L31.6974 56.4595C31.6143 51.0976 31.4898 45.8015 31.3237 40.5714C29.7876 40.2638 27.9402 39.7364 25.7813 38.9892L25.9682 36.6818H41.5366C42.2424 38.0882 42.5953 39.4067 42.5953 40.6373C40.5195 40.8131 38.8588 40.901 37.6134 40.901L36.9284 78.3469L42.1594 78.8743C42.1594 80.1049 41.8065 81.4235 41.1007 82.8299H26.7777L26.5909 80.5225C28.5422 79.8193 30.4519 79.2918 32.3201 78.9402L31.8219 60.6129H11.2716C11.1885 68.524 11.147 74.4353 11.147 78.3469L16.378 78.8743C16.378 80.1049 16.0251 81.4235 15.3194 82.8299H0.996381L0.809559 80.5225C2.7608 79.8193 4.67053 79.2918 6.53875 78.9402C6.12359 61.8874 5.79146 49.0978 5.54237 40.5714C4.00628 40.2638 2.15882 39.7364 0 38.9892L0.186821 36.6818H15.7553C16.461 38.0882 16.8139 39.4067 16.8139 40.6373C14.7381 40.8131 13.0775 40.901 11.832 40.901C11.7075 44.2413 11.5622 49.4055 11.3961 56.3936Z" fill="url(#paint5_linear_111_179)"/>
<path d="M74.6749 21.7948L90.9273 21.7948L99.0535 36.2249L90.9273 50.6551L74.6749 50.6551L66.5487 36.2249L74.6749 21.7948Z" fill="#FFAD84"/>
<path fill-rule="evenodd" clip-rule="evenodd" d="M75.2614 22.8362L67.7216 36.2249L75.2614 49.6136L90.3409 49.6136L97.8806 36.2249L90.3409 22.8362L75.2614 22.8362ZM90.9273 21.7948L74.6749 21.7948L66.5487 36.2249L74.6749 50.6551L90.9273 50.6551L99.0535 36.2249L90.9273 21.7948Z" fill="#FC7837" fill-opacity="0.54"/>
<path d="M103.117 7.2151L119.369 7.2151L127.495 21.6453L119.369 36.0754L103.117 36.0754L94.9903 21.6453L103.117 7.2151Z" fill="#FFA57E"/>
<path fill-rule="evenodd" clip-rule="evenodd" d="M103.703 8.25651L96.1633 21.6453L103.703 35.034L118.783 35.034L126.322 21.6453L118.783 8.25651L103.703 8.25651ZM119.369 7.2151L103.117 7.2151L94.9903 21.6453L103.117 36.0754L119.369 36.0754L127.495 21.6453L119.369 7.2151Z" fill="#9A3B3B" fill-opacity="0.5"/>
<path opacity="0.32" d="M131.558 23.8776L147.811 23.8776L155.937 38.3077L147.811 52.7379L131.558 52.7379L123.432 38.3077L131.558 23.8776Z" fill="#9A3B3B"/>
<path opacity="0.32" fill-rule="evenodd" clip-rule="evenodd" d="M132.145 24.919L124.605 38.3077L132.145 51.6965L147.224 51.6965L154.764 38.3077L147.224 24.919L132.145 24.919ZM147.811 23.8776L131.558 23.8776L123.432 38.3077L131.558 52.7379L147.811 52.7379L155.937 38.3077L147.811 23.8776Z" fill="black"/>
<defs>
<linearGradient id="paint0_linear_111_179" x1="12.2511" y1="50.9156" x2="116.47" y2="79.7973" gradientUnits="userSpaceOnUse">
<stop stop-color="#9A3B3B"/>
<stop offset="1" stop-color="#FC7837"/>
</linearGradient>
<linearGradient id="paint1_linear_111_179" x1="12.2512" y1="50.9156" x2="116.47" y2="79.7973" gradientUnits="userSpaceOnUse">
<stop stop-color="#9A3B3B"/>
<stop offset="1" stop-color="#FC7837"/>
</linearGradient>
<linearGradient id="paint2_linear_111_179" x1="12.2511" y1="50.9155" x2="116.47" y2="79.7972" gradientUnits="userSpaceOnUse">
<stop stop-color="#9A3B3B"/>
<stop offset="1" stop-color="#FC7837"/>
</linearGradient>
<linearGradient id="paint3_linear_111_179" x1="12.251" y1="50.9156" x2="116.47" y2="79.7973" gradientUnits="userSpaceOnUse">
<stop stop-color="#9A3B3B"/>
<stop offset="1" stop-color="#FC7837"/>
</linearGradient>
<linearGradient id="paint4_linear_111_179" x1="12.251" y1="50.9156" x2="116.47" y2="79.7973" gradientUnits="userSpaceOnUse">
<stop stop-color="#9A3B3B"/>
<stop offset="1" stop-color="#FC7837"/>
</linearGradient>
<linearGradient id="paint5_linear_111_179" x1="5.94919" y1="42.7094" x2="131.787" y2="76.4817" gradientUnits="userSpaceOnUse">
<stop stop-color="#9A3B3B"/>
<stop offset="1" stop-color="#FC7837"/>
</linearGradient>
</defs>
</svg>
